# Blender v3.2.0 OBJ File: 'cube.blend'
# www.blender.org
mtllib cube.mtl
o Cube
v 1.000000 1.000000 -1.000000
v 1.000000 -1.000000 -1.000000
v 1.000000 1.000000 1.000000
v 1.000000 -1.000000 1.000000
v -1.000000 1.000000 -1.000000
v -1.000000 -1.000000 -1.000000
v -1.000000 1.000000 1.000000
v -1.000000 -1.000000 1.000000
vt 0.333491 0.000158
vt 0.666509 0.000158
vt 0.666509 0.333176
vt 0.333491 0.333176
vt 0.333176 0.999212
vt 0.000158 0.999212
vt 0.000158 0.666194
vt 0.333176 0.666194
vt 0.000158 0.333176
vt 0.333176 0.333176
vt 0.333491 0.333491
vt 1.295889 0.748944
vt 1.295889 1.081962
vt 0.333491 0.666509
vt 0.999842 0.333176
vt 0.666824 0.333176
vt 0.666824 0.000158
vt 0.999842 0.000158
vt 0.000158 0.000158
vt 0.333176 0.000158
vn 0.0000 1.0000 0.0000
vn 0.0000 0.0000 1.0000
vn -1.0000 0.0000 0.0000
vn 0.0000 -1.0000 0.0000
vn 1.0000 0.0000 0.0000
vn 0.0000 0.0000 -1.0000
usemtl uv_test_pattern
s off
f 1/1/1 5/2/1 7/3/1 3/4/1
f 4/5/2 3/6/2 7/7/2 8/8/2
f 8/8/3 7/7/3 5/9/3 6/10/3
f 6/11/4 2/12/4 4/13/4 8/14/4
f 2/15/5 1/16/5 3/17/5 4/18/5
f 6/10/6 5/9/6 1/19/6 2/20/6
